<mxfile host="Electron" agent="Mozilla/5.0 (Windows NT 10.0; Win64; x64) AppleWebKit/537.36 (KHTML, like Gecko) draw.io/27.0.9 Chrome/134.0.6998.205 Electron/35.4.0 Safari/537.36" version="27.0.9" pages="2">
  <diagram name="요구사항확인" id="3iPyNxk_Smq2hITPgvR4">
    <mxGraphModel dx="1426" dy="849" grid="1" gridSize="10" guides="1" tooltips="1" connect="1" arrows="1" fold="1" page="1" pageScale="1" pageWidth="827" pageHeight="1169" math="0" shadow="0">
      <root>
        <mxCell id="0" />
        <mxCell id="1" parent="0" />
        <mxCell id="Yh9f9eDXbZCcFTyC4_cB-2" value="도서관리 프로그램&amp;nbsp;" style="text;html=1;align=center;verticalAlign=middle;whiteSpace=wrap;rounded=0;fontSize=24;" vertex="1" parent="1">
          <mxGeometry x="260" y="20" width="260" height="30" as="geometry" />
        </mxCell>
        <mxCell id="Yh9f9eDXbZCcFTyC4_cB-8" style="edgeStyle=orthogonalEdgeStyle;rounded=0;orthogonalLoop=1;jettySize=auto;html=1;" edge="1" parent="1" source="Yh9f9eDXbZCcFTyC4_cB-3" target="Yh9f9eDXbZCcFTyC4_cB-7">
          <mxGeometry relative="1" as="geometry" />
        </mxCell>
        <mxCell id="Yh9f9eDXbZCcFTyC4_cB-3" value="사서" style="rounded=0;whiteSpace=wrap;html=1;" vertex="1" parent="1">
          <mxGeometry x="200" y="100" width="120" height="60" as="geometry" />
        </mxCell>
        <mxCell id="Yh9f9eDXbZCcFTyC4_cB-4" value="회원" style="rounded=0;whiteSpace=wrap;html=1;" vertex="1" parent="1">
          <mxGeometry x="330" y="100" width="120" height="60" as="geometry" />
        </mxCell>
        <mxCell id="Yh9f9eDXbZCcFTyC4_cB-5" value="비회원" style="whiteSpace=wrap;html=1;" vertex="1" parent="1">
          <mxGeometry x="460" y="100" width="120" height="60" as="geometry" />
        </mxCell>
        <mxCell id="Yh9f9eDXbZCcFTyC4_cB-28" style="edgeStyle=orthogonalEdgeStyle;rounded=0;orthogonalLoop=1;jettySize=auto;html=1;exitX=0.75;exitY=0;exitDx=0;exitDy=0;" edge="1" parent="1" source="Yh9f9eDXbZCcFTyC4_cB-6">
          <mxGeometry relative="1" as="geometry">
            <mxPoint x="650" y="110" as="targetPoint" />
          </mxGeometry>
        </mxCell>
        <mxCell id="Yh9f9eDXbZCcFTyC4_cB-6" value="관리자" style="whiteSpace=wrap;html=1;" vertex="1" parent="1">
          <mxGeometry x="590" y="100" width="120" height="60" as="geometry" />
        </mxCell>
        <mxCell id="Yh9f9eDXbZCcFTyC4_cB-7" value="Actor&amp;nbsp; &amp;nbsp; :&amp;nbsp; &amp;nbsp; &amp;nbsp;" style="text;html=1;align=center;verticalAlign=middle;whiteSpace=wrap;rounded=0;" vertex="1" parent="1">
          <mxGeometry x="1" y="115" width="79" height="30" as="geometry" />
        </mxCell>
        <mxCell id="Yh9f9eDXbZCcFTyC4_cB-10" value="&amp;nbsp;도서 서비스:&lt;div&gt;&lt;br&gt;&lt;div&gt;1. 회원은 도서 등록(CREATE)을 할 수 없다.&lt;/div&gt;&lt;div&gt;2. 회원은 도서 조회(READ)를 할 수 있다.&lt;/div&gt;&lt;div&gt;3. 회원은 도서 수정(UPDATE)을 할 수 없다.&lt;/div&gt;&lt;div&gt;4.회원은 도서 삭제(DELETE)를 할 수 없다.&lt;/div&gt;&lt;/div&gt;" style="whiteSpace=wrap;html=1;align=left;" vertex="1" parent="1">
          <mxGeometry x="330" y="480" width="120" height="300" as="geometry" />
        </mxCell>
        <mxCell id="Yh9f9eDXbZCcFTyC4_cB-18" value="회원(인증)서비스: 도서등록(CREATE)/도서조회(READ)/ 도서수정(UPDATE)/도서삭제(DELETE) / 로그인/ 로그아웃" style="whiteSpace=wrap;html=1;align=left;" vertex="1" parent="1">
          <mxGeometry x="30" y="670" width="120" height="100" as="geometry" />
        </mxCell>
        <mxCell id="Yh9f9eDXbZCcFTyC4_cB-22" value="도서 서비스 : 도서등록(CREATE)/도서조회(READ)/ 도서수정(UPDATE)/도서삭제(DELETE)" style="whiteSpace=wrap;html=1;align=left;" vertex="1" parent="1">
          <mxGeometry x="30" y="560" width="120" height="100" as="geometry" />
        </mxCell>
        <mxCell id="Yh9f9eDXbZCcFTyC4_cB-23" value="회원(인증)서비스:&amp;nbsp;&lt;div&gt;&lt;br&gt;&lt;div&gt;&lt;span style=&quot;background-color: transparent; color: light-dark(rgb(0, 0, 0), rgb(255, 255, 255));&quot;&gt;1. 회원은 나의 정보를 조회(READ)할 수 있다.&lt;/span&gt;&lt;/div&gt;&lt;div&gt;&lt;span style=&quot;background-color: transparent; color: light-dark(rgb(0, 0, 0), rgb(255, 255, 255));&quot;&gt;2. 회원은 나의 정보를 수정(UPDATE)할 수 있다.&lt;/span&gt;&lt;/div&gt;&lt;div&gt;&lt;span style=&quot;background-color: transparent; color: light-dark(rgb(0, 0, 0), rgb(255, 255, 255));&quot;&gt;3. 회원은 회원 삭제(DELETE)를 할 수 있다.&lt;/span&gt;&lt;/div&gt;&lt;div&gt;&lt;span style=&quot;background-color: transparent; color: light-dark(rgb(0, 0, 0), rgb(255, 255, 255));&quot;&gt;4. 회원은 로그인(PROCESS) 할 수 있다.&lt;/span&gt;&lt;/div&gt;&lt;div&gt;&lt;span style=&quot;background-color: transparent; color: light-dark(rgb(0, 0, 0), rgb(255, 255, 255));&quot;&gt;5. 회원은 로그아웃&lt;/span&gt;&lt;span style=&quot;background-color: transparent; color: light-dark(rgb(0, 0, 0), rgb(255, 255, 255));&quot;&gt;(PROCESS)&lt;/span&gt;&lt;span style=&quot;background-color: transparent; color: light-dark(rgb(0, 0, 0), rgb(255, 255, 255));&quot;&gt;&amp;nbsp;할 수 있다.&lt;/span&gt;&lt;/div&gt;&lt;div&gt;&lt;span style=&quot;background-color: transparent; color: light-dark(rgb(0, 0, 0), rgb(255, 255, 255));&quot;&gt;6.&amp;nbsp;&lt;/span&gt;&lt;/div&gt;&lt;/div&gt;" style="whiteSpace=wrap;html=1;align=left;" vertex="1" parent="1">
          <mxGeometry x="330" y="170" width="120" height="300" as="geometry" />
        </mxCell>
        <mxCell id="Yh9f9eDXbZCcFTyC4_cB-27" value="회원(인증)서비스:&amp;nbsp;&lt;div&gt;&lt;br&gt;&lt;div&gt;&lt;span style=&quot;background-color: transparent; color: light-dark(rgb(0, 0, 0), rgb(255, 255, 255));&quot;&gt;1. 비회원은 회원가입(CREATE) 할 수 있다.&lt;/span&gt;&lt;/div&gt;&lt;div&gt;&lt;br&gt;&lt;/div&gt;&lt;/div&gt;" style="whiteSpace=wrap;html=1;align=left;" vertex="1" parent="1">
          <mxGeometry x="460" y="170" width="120" height="300" as="geometry" />
        </mxCell>
        <mxCell id="Yh9f9eDXbZCcFTyC4_cB-29" value="회원(인증)서비스:&amp;nbsp;&lt;div&gt;&lt;br&gt;&lt;div&gt;&lt;span style=&quot;background-color: transparent; color: light-dark(rgb(0, 0, 0), rgb(255, 255, 255));&quot;&gt;1. 사서는 나의 정보를 조회(READ)할 수 있다.&lt;/span&gt;&lt;/div&gt;&lt;div&gt;&lt;span style=&quot;background-color: transparent; color: light-dark(rgb(0, 0, 0), rgb(255, 255, 255));&quot;&gt;2. 사서는 나의 정보를 수정(UPDATE)할 수 있다.&lt;/span&gt;&lt;/div&gt;&lt;div&gt;&lt;span style=&quot;background-color: transparent; color: light-dark(rgb(0, 0, 0), rgb(255, 255, 255));&quot;&gt;3. 사서는 회원 삭제(DELETE)를 할 수 있다.&lt;/span&gt;&lt;/div&gt;&lt;div&gt;&lt;span style=&quot;background-color: transparent; color: light-dark(rgb(0, 0, 0), rgb(255, 255, 255));&quot;&gt;4. 사서는 로그인(PROCESS) 할 수 있다.&lt;/span&gt;&lt;/div&gt;&lt;div&gt;&lt;span style=&quot;background-color: transparent; color: light-dark(rgb(0, 0, 0), rgb(255, 255, 255));&quot;&gt;5. 사서는 로그아웃&lt;/span&gt;&lt;span style=&quot;background-color: transparent; color: light-dark(rgb(0, 0, 0), rgb(255, 255, 255));&quot;&gt;(PROCESS)&lt;/span&gt;&lt;span style=&quot;background-color: transparent; color: light-dark(rgb(0, 0, 0), rgb(255, 255, 255));&quot;&gt;&amp;nbsp;할 수 있다.&lt;/span&gt;&lt;/div&gt;&lt;div&gt;&lt;span style=&quot;background-color: transparent; color: light-dark(rgb(0, 0, 0), rgb(255, 255, 255));&quot;&gt;6.&amp;nbsp;&lt;/span&gt;&lt;/div&gt;&lt;/div&gt;" style="whiteSpace=wrap;html=1;align=left;" vertex="1" parent="1">
          <mxGeometry x="200" y="170" width="120" height="300" as="geometry" />
        </mxCell>
        <mxCell id="Yh9f9eDXbZCcFTyC4_cB-30" value="회원(인증)서비스:&amp;nbsp;&lt;div&gt;&lt;br&gt;&lt;div&gt;&lt;span style=&quot;background-color: transparent; color: light-dark(rgb(0, 0, 0), rgb(255, 255, 255));&quot;&gt;1. 관리자는 나의 정보를 조회(READ)할 수 있다.&lt;/span&gt;&lt;/div&gt;&lt;div&gt;&lt;span style=&quot;background-color: transparent; color: light-dark(rgb(0, 0, 0), rgb(255, 255, 255));&quot;&gt;2. 관리자는 나의 정보를 수정(UPDATE)할 수 있다.&lt;/span&gt;&lt;/div&gt;&lt;div&gt;&lt;span style=&quot;background-color: transparent; color: light-dark(rgb(0, 0, 0), rgb(255, 255, 255));&quot;&gt;3. 관리자는 회원 삭제(DELETE)를 할 수 있다.&lt;/span&gt;&lt;/div&gt;&lt;div&gt;&lt;span style=&quot;background-color: transparent; color: light-dark(rgb(0, 0, 0), rgb(255, 255, 255));&quot;&gt;4. 관리자는 로그인(PROCESS) 할 수 있다.&lt;/span&gt;&lt;/div&gt;&lt;div&gt;&lt;span style=&quot;background-color: transparent; color: light-dark(rgb(0, 0, 0), rgb(255, 255, 255));&quot;&gt;5. 관리자는 로그아웃&lt;/span&gt;&lt;span style=&quot;background-color: transparent; color: light-dark(rgb(0, 0, 0), rgb(255, 255, 255));&quot;&gt;(PROCESS)&lt;/span&gt;&lt;span style=&quot;background-color: transparent; color: light-dark(rgb(0, 0, 0), rgb(255, 255, 255));&quot;&gt;&amp;nbsp;할 수 있다.&lt;/span&gt;&lt;/div&gt;&lt;div&gt;&lt;span style=&quot;background-color: transparent; color: light-dark(rgb(0, 0, 0), rgb(255, 255, 255));&quot;&gt;6.&amp;nbsp;&lt;/span&gt;&lt;/div&gt;&lt;/div&gt;" style="whiteSpace=wrap;html=1;align=left;" vertex="1" parent="1">
          <mxGeometry x="590" y="170" width="120" height="300" as="geometry" />
        </mxCell>
        <mxCell id="Yh9f9eDXbZCcFTyC4_cB-32" value="도서 대여 서비스:&lt;div&gt;&lt;br&gt;&lt;div&gt;1. 사서는 대여처리(CREATE)를 할 수 있다.&lt;/div&gt;&lt;div&gt;2. 사서는 유저의 대여 내역을 조회(READ) 할 수 있다.&lt;/div&gt;&lt;div&gt;3. 사서는 대여 내역 수정/대여 연장 처리(UPDATE)를 할 수 있다.&lt;/div&gt;&lt;div&gt;4. 사서는 반납 완료처리(DELETE)를 할 수 있다.&lt;/div&gt;&lt;/div&gt;" style="whiteSpace=wrap;html=1;align=left;" vertex="1" parent="1">
          <mxGeometry x="200" y="790" width="120" height="250" as="geometry" />
        </mxCell>
        <mxCell id="Yh9f9eDXbZCcFTyC4_cB-33" value="&amp;nbsp;도서 서비스:&lt;div&gt;&lt;br&gt;&lt;div&gt;1. 사서는 도서 등록(CREATE)을 할 수 있다.&lt;/div&gt;&lt;div&gt;2. 사서는 도서 조회(READ)를 할 수 있다.&lt;/div&gt;&lt;div&gt;3. 사서는 도서 수정(UPDATE)을 할 수 있다.&lt;/div&gt;&lt;div&gt;4.사서는 도서 삭제(DELETE)를 할 수 있다.&lt;/div&gt;&lt;/div&gt;" style="whiteSpace=wrap;html=1;align=left;" vertex="1" parent="1">
          <mxGeometry x="200" y="480" width="120" height="300" as="geometry" />
        </mxCell>
        <mxCell id="Yh9f9eDXbZCcFTyC4_cB-34" value="&amp;nbsp;도서 서비스:&lt;div&gt;&lt;br&gt;&lt;div&gt;1. 비회원은 도서 등록(CREATE)을 할 수 없다.&lt;/div&gt;&lt;div&gt;2. 비회원은 도서 조회(READ)를 할 수 있다.&lt;/div&gt;&lt;div&gt;3. 비회원은 도서 수정(UPDATE)을 할 수 없다.&lt;/div&gt;&lt;div&gt;4.비회원은 도서 삭제(DELETE)를 할 수 없다.&lt;/div&gt;&lt;/div&gt;" style="whiteSpace=wrap;html=1;align=left;" vertex="1" parent="1">
          <mxGeometry x="460" y="480" width="120" height="300" as="geometry" />
        </mxCell>
        <mxCell id="Yh9f9eDXbZCcFTyC4_cB-36" value="&amp;nbsp;도서 서비스:&lt;div&gt;&lt;br&gt;&lt;div&gt;1. 관리자는 도서 등록(CREATE)을 할 수 있다.&lt;/div&gt;&lt;div&gt;2. 관리자는 도서 조회(READ)를 할 수 있다.&lt;/div&gt;&lt;div&gt;3. 관리잔,ㄴ도서 수정(UPDATE)을 할 수 있다.&lt;/div&gt;&lt;div&gt;4.관리자는 도서 삭제(DELETE)를 할 수 있다.&lt;/div&gt;&lt;/div&gt;" style="whiteSpace=wrap;html=1;align=left;" vertex="1" parent="1">
          <mxGeometry x="590" y="480" width="120" height="300" as="geometry" />
        </mxCell>
        <mxCell id="Yh9f9eDXbZCcFTyC4_cB-41" value="" style="edgeStyle=orthogonalEdgeStyle;rounded=0;orthogonalLoop=1;jettySize=auto;html=1;" edge="1" parent="1" source="Yh9f9eDXbZCcFTyC4_cB-38" target="Yh9f9eDXbZCcFTyC4_cB-29">
          <mxGeometry relative="1" as="geometry" />
        </mxCell>
        <mxCell id="Yh9f9eDXbZCcFTyC4_cB-42" value="" style="edgeStyle=orthogonalEdgeStyle;rounded=0;orthogonalLoop=1;jettySize=auto;html=1;" edge="1" parent="1" source="Yh9f9eDXbZCcFTyC4_cB-38" target="Yh9f9eDXbZCcFTyC4_cB-29">
          <mxGeometry relative="1" as="geometry" />
        </mxCell>
        <mxCell id="Yh9f9eDXbZCcFTyC4_cB-38" value="Actor" style="shape=umlActor;verticalLabelPosition=bottom;verticalAlign=top;html=1;outlineConnect=0;" vertex="1" parent="1">
          <mxGeometry x="245" y="40" width="30" height="60" as="geometry" />
        </mxCell>
        <mxCell id="Yh9f9eDXbZCcFTyC4_cB-39" value="Actor" style="shape=umlActor;verticalLabelPosition=bottom;verticalAlign=top;html=1;outlineConnect=0;" vertex="1" parent="1">
          <mxGeometry x="375" y="40" width="30" height="60" as="geometry" />
        </mxCell>
        <mxCell id="Yh9f9eDXbZCcFTyC4_cB-40" value="도서 대여 서비스:&lt;div&gt;&lt;br&gt;&lt;div&gt;&lt;span style=&quot;background-color: transparent; color: light-dark(rgb(0, 0, 0), rgb(255, 255, 255));&quot;&gt;1. 회원은 나의 대여 내역을 조회(READ)할 수 있다.&lt;/span&gt;&lt;/div&gt;&lt;div&gt;&lt;span style=&quot;background-color: transparent; color: light-dark(rgb(0, 0, 0), rgb(255, 255, 255));&quot;&gt;2. 회원은 대여 내역 수정/대여 연장 처리(UPDATE)를 할 수 있다.&lt;br&gt;&lt;/span&gt;&lt;/div&gt;&lt;div&gt;&lt;span style=&quot;background-color: transparent; color: light-dark(rgb(0, 0, 0), rgb(255, 255, 255));&quot;&gt;3. 회원은 반납 완료처리(DELETE)를 할 수 없다.&lt;/span&gt;&lt;/div&gt;&lt;div&gt;4. 회원은 대여처리(CREATE)를 할 수 없다.&lt;/div&gt;&lt;/div&gt;" style="whiteSpace=wrap;html=1;align=left;" vertex="1" parent="1">
          <mxGeometry x="330" y="790" width="120" height="250" as="geometry" />
        </mxCell>
        <mxCell id="Yh9f9eDXbZCcFTyC4_cB-43" value="Actor" style="shape=umlActor;verticalLabelPosition=bottom;verticalAlign=top;html=1;outlineConnect=0;" vertex="1" parent="1">
          <mxGeometry x="505" y="40" width="30" height="60" as="geometry" />
        </mxCell>
        <mxCell id="Yh9f9eDXbZCcFTyC4_cB-44" value="Actor" style="shape=umlActor;verticalLabelPosition=bottom;verticalAlign=top;html=1;outlineConnect=0;" vertex="1" parent="1">
          <mxGeometry x="635" y="40" width="30" height="60" as="geometry" />
        </mxCell>
        <mxCell id="Yh9f9eDXbZCcFTyC4_cB-45" value="도서 대여 서비스 : 도서대여(CREATE)/도서대여 내역 조회(READ)/ 도서대여상태수정(UPDATE)/도서반납(DELETE)" style="whiteSpace=wrap;html=1;align=left;" vertex="1" parent="1">
          <mxGeometry x="30" y="780" width="120" height="100" as="geometry" />
        </mxCell>
        <mxCell id="Yh9f9eDXbZCcFTyC4_cB-46" value="도서 대여 서비스:&lt;div&gt;&lt;br&gt;&lt;div&gt;&lt;span style=&quot;background-color: transparent; color: light-dark(rgb(0, 0, 0), rgb(255, 255, 255));&quot;&gt;1. 비회원은 나의 대여 내역을 조회(READ)할 수 있다.&lt;/span&gt;&lt;/div&gt;&lt;div&gt;&lt;span style=&quot;background-color: transparent; color: light-dark(rgb(0, 0, 0), rgb(255, 255, 255));&quot;&gt;2. 비회원은 대여 내역 수정/대여 연장 처리(UPDATE)를 할 수 없다.&lt;br&gt;&lt;/span&gt;&lt;/div&gt;&lt;div&gt;&lt;span style=&quot;background-color: transparent; color: light-dark(rgb(0, 0, 0), rgb(255, 255, 255));&quot;&gt;3. 비회원은 반납 완료처리(DELETE)를 할 수 없다.&lt;/span&gt;&lt;/div&gt;&lt;div&gt;&lt;span style=&quot;background-color: transparent; color: light-dark(rgb(0, 0, 0), rgb(255, 255, 255));&quot;&gt;4. 비회원은 대여처리(CREATE)를 할 수 없다.&lt;/span&gt;&lt;/div&gt;&lt;/div&gt;" style="whiteSpace=wrap;html=1;align=left;" vertex="1" parent="1">
          <mxGeometry x="460" y="790" width="120" height="250" as="geometry" />
        </mxCell>
        <mxCell id="Yh9f9eDXbZCcFTyC4_cB-47" value="도서 대여 서비스:&lt;div&gt;&lt;br&gt;&lt;div&gt;1. 관리자는 대여처리(CREATE)를 할 수 있다.&lt;/div&gt;&lt;div&gt;2. 관리자는 유저의 대여 내역을 조회(READ) 할 수 있다.&lt;/div&gt;&lt;div&gt;3. 관리자는 대여 내역 수정/대여 연장 처리(UPDATE)를 할 수 있다.&lt;/div&gt;&lt;div&gt;4. 관리자는 반납 완료처리(DELETE)를 할 수 있다.&lt;/div&gt;&lt;/div&gt;" style="whiteSpace=wrap;html=1;align=left;" vertex="1" parent="1">
          <mxGeometry x="590" y="790" width="120" height="250" as="geometry" />
        </mxCell>
        <mxCell id="Yh9f9eDXbZCcFTyC4_cB-48" value="&lt;b&gt;&lt;font style=&quot;font-size: 17px;&quot;&gt;&amp;lt;요구사항 목록&amp;gt;&lt;/font&gt;&lt;/b&gt;" style="text;html=1;align=center;verticalAlign=middle;whiteSpace=wrap;rounded=0;" vertex="1" parent="1">
          <mxGeometry x="10" y="520" width="160" height="30" as="geometry" />
        </mxCell>
      </root>
    </mxGraphModel>
  </diagram>
  <diagram id="UCc8aFWK9N3qZ4mUiixD" name="패치커뮤니티프로그램Usecase">
    <mxGraphModel dx="1426" dy="849" grid="1" gridSize="10" guides="1" tooltips="1" connect="1" arrows="1" fold="1" page="1" pageScale="1" pageWidth="827" pageHeight="1169" math="0" shadow="0">
      <root>
        <mxCell id="0" />
        <mxCell id="1" parent="0" />
        <mxCell id="Ww5S3KVbp-khiv0_vOsi-1" value="&lt;font style=&quot;font-size: 13px;&quot;&gt;&lt;b&gt;패치커뮤니티프로그램&lt;/b&gt;&lt;/font&gt;" style="shape=umlFrame;whiteSpace=wrap;html=1;pointerEvents=0;width=150;height=40;strokeWidth=2;" vertex="1" parent="1">
          <mxGeometry x="110" y="70" width="570" height="770" as="geometry" />
        </mxCell>
        <mxCell id="Ww5S3KVbp-khiv0_vOsi-2" value="비회원" style="shape=umlActor;verticalLabelPosition=bottom;verticalAlign=top;html=1;" vertex="1" parent="1">
          <mxGeometry x="50" y="90" width="30" height="60" as="geometry" />
        </mxCell>
        <mxCell id="Ww5S3KVbp-khiv0_vOsi-3" value="회원" style="shape=umlActor;verticalLabelPosition=bottom;verticalAlign=top;html=1;" vertex="1" parent="1">
          <mxGeometry x="50" y="570" width="30" height="60" as="geometry" />
        </mxCell>
        <mxCell id="Ww5S3KVbp-khiv0_vOsi-4" value="개발자/관리자" style="shape=umlActor;verticalLabelPosition=bottom;verticalAlign=top;html=1;" vertex="1" parent="1">
          <mxGeometry x="730" y="570" width="30" height="60" as="geometry" />
        </mxCell>
        <mxCell id="Ww5S3KVbp-khiv0_vOsi-9" value="회원가입" style="ellipse;whiteSpace=wrap;html=1;" vertex="1" parent="1">
          <mxGeometry x="350" y="80" width="100" height="60" as="geometry" />
        </mxCell>
        <mxCell id="Ww5S3KVbp-khiv0_vOsi-10" value="패치내역조회" style="ellipse;whiteSpace=wrap;html=1;" vertex="1" parent="1">
          <mxGeometry x="350" y="180" width="100" height="60" as="geometry" />
        </mxCell>
        <mxCell id="Ww5S3KVbp-khiv0_vOsi-11" value="로그인&lt;span style=&quot;color: rgba(0, 0, 0, 0); font-family: monospace; font-size: 0px; text-align: start; text-wrap-mode: nowrap;&quot;&gt;%3CmxGraphModel%3E%3Croot%3E%3CmxCell%20id%3D%220%22%2F%3E%3CmxCell%20id%3D%221%22%20parent%3D%220%22%2F%3E%3CmxCell%20id%3D%222%22%20value%3D%22%22%20style%3D%22ellipse%3BwhiteSpace%3Dwrap%3Bhtml%3D1%3B%22%20vertex%3D%221%22%20parent%3D%221%22%3E%3CmxGeometry%20x%3D%22350%22%20y%3D%2280%22%20width%3D%22100%22%20height%3D%2260%22%20as%3D%22geometry%22%2F%3E%3C%2FmxCell%3E%3C%2Froot%3E%3C%2FmxGraphModel%3E&lt;/span&gt;" style="ellipse;whiteSpace=wrap;html=1;" vertex="1" parent="1">
          <mxGeometry x="350" y="380" width="100" height="60" as="geometry" />
        </mxCell>
        <mxCell id="Ww5S3KVbp-khiv0_vOsi-12" value="피드백조회" style="ellipse;whiteSpace=wrap;html=1;" vertex="1" parent="1">
          <mxGeometry x="350" y="280" width="100" height="60" as="geometry" />
        </mxCell>
        <mxCell id="Ww5S3KVbp-khiv0_vOsi-13" value="패치서비스" style="ellipse;whiteSpace=wrap;html=1;" vertex="1" parent="1">
          <mxGeometry x="530" y="490" width="100" height="60" as="geometry" />
        </mxCell>
        <mxCell id="Ww5S3KVbp-khiv0_vOsi-14" value="피드백서비스" style="ellipse;whiteSpace=wrap;html=1;" vertex="1" parent="1">
          <mxGeometry x="350" y="560" width="100" height="60" as="geometry" />
        </mxCell>
        <mxCell id="Ww5S3KVbp-khiv0_vOsi-15" value="나의정보" style="ellipse;whiteSpace=wrap;html=1;" vertex="1" parent="1">
          <mxGeometry x="170" y="500" width="100" height="60" as="geometry" />
        </mxCell>
        <mxCell id="Ww5S3KVbp-khiv0_vOsi-16" value="로그아웃" style="ellipse;whiteSpace=wrap;html=1;" vertex="1" parent="1">
          <mxGeometry x="170" y="280" width="100" height="60" as="geometry" />
        </mxCell>
        <mxCell id="Ww5S3KVbp-khiv0_vOsi-17" value="use" style="html=1;verticalAlign=bottom;endArrow=block;curved=0;rounded=0;exitX=1;exitY=0.3333333333333333;exitDx=0;exitDy=0;exitPerimeter=0;entryX=0;entryY=0.5;entryDx=0;entryDy=0;" edge="1" parent="1" source="Ww5S3KVbp-khiv0_vOsi-2" target="Ww5S3KVbp-khiv0_vOsi-9">
          <mxGeometry width="80" relative="1" as="geometry">
            <mxPoint x="150" y="130" as="sourcePoint" />
            <mxPoint x="230" y="130" as="targetPoint" />
          </mxGeometry>
        </mxCell>
        <mxCell id="Ww5S3KVbp-khiv0_vOsi-19" value="use" style="html=1;verticalAlign=bottom;endArrow=block;curved=0;rounded=0;exitX=0;exitY=0.3333333333333333;exitDx=0;exitDy=0;exitPerimeter=0;entryX=1;entryY=0.5;entryDx=0;entryDy=0;" edge="1" parent="1" source="Ww5S3KVbp-khiv0_vOsi-4" target="Ww5S3KVbp-khiv0_vOsi-10">
          <mxGeometry width="80" relative="1" as="geometry">
            <mxPoint x="760" y="200" as="sourcePoint" />
            <mxPoint x="1030" y="170" as="targetPoint" />
          </mxGeometry>
        </mxCell>
        <mxCell id="Ww5S3KVbp-khiv0_vOsi-20" value="use" style="html=1;verticalAlign=bottom;endArrow=block;curved=0;rounded=0;exitX=1;exitY=0.3333333333333333;exitDx=0;exitDy=0;exitPerimeter=0;entryX=0;entryY=0.5;entryDx=0;entryDy=0;" edge="1" parent="1" source="Ww5S3KVbp-khiv0_vOsi-3" target="Ww5S3KVbp-khiv0_vOsi-10">
          <mxGeometry width="80" relative="1" as="geometry">
            <mxPoint x="950" y="230" as="sourcePoint" />
            <mxPoint x="1220" y="200" as="targetPoint" />
          </mxGeometry>
        </mxCell>
        <mxCell id="Ww5S3KVbp-khiv0_vOsi-23" value="use" style="html=1;verticalAlign=bottom;endArrow=block;curved=0;rounded=0;exitX=0;exitY=0.3333333333333333;exitDx=0;exitDy=0;exitPerimeter=0;entryX=1;entryY=0.5;entryDx=0;entryDy=0;" edge="1" parent="1" source="Ww5S3KVbp-khiv0_vOsi-4" target="Ww5S3KVbp-khiv0_vOsi-12">
          <mxGeometry width="80" relative="1" as="geometry">
            <mxPoint x="1030" y="240" as="sourcePoint" />
            <mxPoint x="1300" y="210" as="targetPoint" />
          </mxGeometry>
        </mxCell>
        <mxCell id="Ww5S3KVbp-khiv0_vOsi-24" value="use" style="html=1;verticalAlign=bottom;endArrow=block;curved=0;rounded=0;entryX=0;entryY=0.5;entryDx=0;entryDy=0;exitX=1;exitY=0.3333333333333333;exitDx=0;exitDy=0;exitPerimeter=0;" edge="1" parent="1" source="Ww5S3KVbp-khiv0_vOsi-3" target="Ww5S3KVbp-khiv0_vOsi-12">
          <mxGeometry width="80" relative="1" as="geometry">
            <mxPoint x="90" y="590" as="sourcePoint" />
            <mxPoint x="1050" y="390" as="targetPoint" />
          </mxGeometry>
        </mxCell>
        <mxCell id="Ww5S3KVbp-khiv0_vOsi-25" value="use" style="html=1;verticalAlign=bottom;endArrow=block;curved=0;rounded=0;exitX=1;exitY=0.3333333333333333;exitDx=0;exitDy=0;exitPerimeter=0;" edge="1" parent="1" source="Ww5S3KVbp-khiv0_vOsi-3" target="Ww5S3KVbp-khiv0_vOsi-14">
          <mxGeometry width="80" relative="1" as="geometry">
            <mxPoint x="780" y="440" as="sourcePoint" />
            <mxPoint x="1050" y="410" as="targetPoint" />
          </mxGeometry>
        </mxCell>
        <mxCell id="Ww5S3KVbp-khiv0_vOsi-26" value="&amp;lt;&amp;lt;include&amp;gt;&amp;gt;" style="endArrow=open;endSize=12;dashed=1;html=1;rounded=0;exitX=1;exitY=0.667;exitDx=0;exitDy=0;exitPerimeter=0;" edge="1" parent="1" source="Ww5S3KVbp-khiv0_vOsi-16" target="Ww5S3KVbp-khiv0_vOsi-11">
          <mxGeometry width="160" relative="1" as="geometry">
            <mxPoint x="650" y="440" as="sourcePoint" />
            <mxPoint x="810" y="440" as="targetPoint" />
          </mxGeometry>
        </mxCell>
        <mxCell id="Ww5S3KVbp-khiv0_vOsi-28" value="&amp;lt;&amp;lt;include&amp;gt;&amp;gt;" style="endArrow=open;endSize=12;dashed=1;html=1;rounded=0;exitX=0.5;exitY=0;exitDx=0;exitDy=0;entryX=0.5;entryY=1;entryDx=0;entryDy=0;" edge="1" parent="1" source="Ww5S3KVbp-khiv0_vOsi-14" target="Ww5S3KVbp-khiv0_vOsi-11">
          <mxGeometry width="160" relative="1" as="geometry">
            <mxPoint x="660" y="320" as="sourcePoint" />
            <mxPoint x="757" y="387" as="targetPoint" />
          </mxGeometry>
        </mxCell>
        <mxCell id="Ww5S3KVbp-khiv0_vOsi-29" value="&amp;lt;&amp;lt;include&amp;gt;&amp;gt;" style="endArrow=open;endSize=12;dashed=1;html=1;rounded=0;exitX=0;exitY=0;exitDx=0;exitDy=0;" edge="1" parent="1" source="Ww5S3KVbp-khiv0_vOsi-13" target="Ww5S3KVbp-khiv0_vOsi-11">
          <mxGeometry width="160" relative="1" as="geometry">
            <mxPoint x="730" y="390" as="sourcePoint" />
            <mxPoint x="827" y="457" as="targetPoint" />
          </mxGeometry>
        </mxCell>
        <mxCell id="Ww5S3KVbp-khiv0_vOsi-30" value="&amp;lt;&amp;lt;include&amp;gt;&amp;gt;" style="endArrow=open;endSize=12;dashed=1;html=1;rounded=0;exitX=1;exitY=0;exitDx=0;exitDy=0;entryX=0;entryY=1;entryDx=0;entryDy=0;" edge="1" parent="1" source="Ww5S3KVbp-khiv0_vOsi-15" target="Ww5S3KVbp-khiv0_vOsi-11">
          <mxGeometry width="160" relative="1" as="geometry">
            <mxPoint x="770" y="400" as="sourcePoint" />
            <mxPoint x="867" y="467" as="targetPoint" />
          </mxGeometry>
        </mxCell>
        <mxCell id="Ww5S3KVbp-khiv0_vOsi-31" value="use" style="html=1;verticalAlign=bottom;endArrow=block;curved=0;rounded=0;" edge="1" parent="1" target="Ww5S3KVbp-khiv0_vOsi-13">
          <mxGeometry width="80" relative="1" as="geometry">
            <mxPoint x="730" y="590" as="sourcePoint" />
            <mxPoint x="650" y="540" as="targetPoint" />
          </mxGeometry>
        </mxCell>
        <mxCell id="Ww5S3KVbp-khiv0_vOsi-33" value="use" style="html=1;verticalAlign=bottom;endArrow=block;curved=0;rounded=0;entryX=1;entryY=0.5;entryDx=0;entryDy=0;" edge="1" parent="1" target="Ww5S3KVbp-khiv0_vOsi-14">
          <mxGeometry width="80" relative="1" as="geometry">
            <mxPoint x="730" y="590" as="sourcePoint" />
            <mxPoint x="770" y="590" as="targetPoint" />
          </mxGeometry>
        </mxCell>
        <mxCell id="Ww5S3KVbp-khiv0_vOsi-34" value="" style="html=1;verticalAlign=bottom;endArrow=block;rounded=0;exitX=0.5;exitY=0;exitDx=0;exitDy=0;entryX=0.5;entryY=1;entryDx=0;entryDy=0;edgeStyle=orthogonalEdgeStyle;endFill=0;" edge="1" parent="1" source="Ww5S3KVbp-khiv0_vOsi-35" target="Ww5S3KVbp-khiv0_vOsi-14">
          <mxGeometry width="80" relative="1" as="geometry">
            <mxPoint x="1120" y="650" as="sourcePoint" />
            <mxPoint x="840" y="470" as="targetPoint" />
          </mxGeometry>
        </mxCell>
        <mxCell id="Ww5S3KVbp-khiv0_vOsi-35" value="작성" style="ellipse;whiteSpace=wrap;html=1;" vertex="1" parent="1">
          <mxGeometry x="310" y="720" width="50" height="50" as="geometry" />
        </mxCell>
        <mxCell id="Ww5S3KVbp-khiv0_vOsi-37" value="수정" style="ellipse;whiteSpace=wrap;html=1;" vertex="1" parent="1">
          <mxGeometry x="375" y="720" width="50" height="50" as="geometry" />
        </mxCell>
        <mxCell id="Ww5S3KVbp-khiv0_vOsi-38" value="삭제" style="ellipse;whiteSpace=wrap;html=1;" vertex="1" parent="1">
          <mxGeometry x="440" y="720" width="50" height="50" as="geometry" />
        </mxCell>
        <mxCell id="Ww5S3KVbp-khiv0_vOsi-43" value="" style="html=1;verticalAlign=bottom;endArrow=none;rounded=0;exitX=0.5;exitY=0;exitDx=0;exitDy=0;strokeColor=default;edgeStyle=orthogonalEdgeStyle;startFill=0;entryX=0.5;entryY=1;entryDx=0;entryDy=0;" edge="1" parent="1" source="Ww5S3KVbp-khiv0_vOsi-37" target="Ww5S3KVbp-khiv0_vOsi-14">
          <mxGeometry width="80" relative="1" as="geometry">
            <mxPoint x="690" y="440" as="sourcePoint" />
            <mxPoint x="770" y="440" as="targetPoint" />
          </mxGeometry>
        </mxCell>
        <mxCell id="Ww5S3KVbp-khiv0_vOsi-45" value="작성" style="ellipse;whiteSpace=wrap;html=1;" vertex="1" parent="1">
          <mxGeometry x="555" y="670" width="50" height="50" as="geometry" />
        </mxCell>
        <mxCell id="Ww5S3KVbp-khiv0_vOsi-46" value="삭제" style="ellipse;whiteSpace=wrap;html=1;" vertex="1" parent="1">
          <mxGeometry x="620" y="670" width="50" height="50" as="geometry" />
        </mxCell>
        <mxCell id="Ww5S3KVbp-khiv0_vOsi-47" value="수정" style="ellipse;whiteSpace=wrap;html=1;" vertex="1" parent="1">
          <mxGeometry x="490" y="670" width="50" height="50" as="geometry" />
        </mxCell>
        <mxCell id="Ww5S3KVbp-khiv0_vOsi-48" value="조회" style="ellipse;whiteSpace=wrap;html=1;" vertex="1" parent="1">
          <mxGeometry x="170" y="670" width="50" height="50" as="geometry" />
        </mxCell>
        <mxCell id="Ww5S3KVbp-khiv0_vOsi-49" value="수정" style="ellipse;whiteSpace=wrap;html=1;" vertex="1" parent="1">
          <mxGeometry x="220" y="670" width="50" height="50" as="geometry" />
        </mxCell>
        <mxCell id="Ww5S3KVbp-khiv0_vOsi-50" value="작성" style="ellipse;whiteSpace=wrap;html=1;" vertex="1" parent="1">
          <mxGeometry x="120" y="670" width="50" height="50" as="geometry" />
        </mxCell>
        <mxCell id="Ww5S3KVbp-khiv0_vOsi-51" value="" style="html=1;verticalAlign=bottom;endArrow=block;rounded=0;exitX=0.5;exitY=0;exitDx=0;exitDy=0;entryX=0.5;entryY=1;entryDx=0;entryDy=0;edgeStyle=orthogonalEdgeStyle;endFill=0;" edge="1" parent="1" source="Ww5S3KVbp-khiv0_vOsi-50" target="Ww5S3KVbp-khiv0_vOsi-15">
          <mxGeometry width="80" relative="1" as="geometry">
            <mxPoint x="1020" y="470" as="sourcePoint" />
            <mxPoint x="1085" y="440" as="targetPoint" />
          </mxGeometry>
        </mxCell>
        <mxCell id="Ww5S3KVbp-khiv0_vOsi-53" value="" style="html=1;verticalAlign=bottom;endArrow=none;rounded=0;strokeColor=default;edgeStyle=orthogonalEdgeStyle;startFill=0;entryX=0.5;entryY=0;entryDx=0;entryDy=0;exitX=0.5;exitY=1;exitDx=0;exitDy=0;" edge="1" parent="1" source="Ww5S3KVbp-khiv0_vOsi-15" target="Ww5S3KVbp-khiv0_vOsi-49">
          <mxGeometry width="80" relative="1" as="geometry">
            <mxPoint x="220" y="570" as="sourcePoint" />
            <mxPoint x="940" y="460" as="targetPoint" />
          </mxGeometry>
        </mxCell>
        <mxCell id="Ww5S3KVbp-khiv0_vOsi-54" value="" style="html=1;verticalAlign=bottom;endArrow=block;rounded=0;exitX=0.5;exitY=0;exitDx=0;exitDy=0;entryX=0.5;entryY=1;entryDx=0;entryDy=0;edgeStyle=orthogonalEdgeStyle;endFill=0;" edge="1" parent="1" source="Ww5S3KVbp-khiv0_vOsi-47" target="Ww5S3KVbp-khiv0_vOsi-13">
          <mxGeometry width="80" relative="1" as="geometry">
            <mxPoint x="1260" y="470" as="sourcePoint" />
            <mxPoint x="1325" y="430" as="targetPoint" />
          </mxGeometry>
        </mxCell>
        <mxCell id="Ww5S3KVbp-khiv0_vOsi-55" value="" style="html=1;verticalAlign=bottom;endArrow=none;rounded=0;strokeColor=default;edgeStyle=orthogonalEdgeStyle;startFill=0;entryX=0.5;entryY=0;entryDx=0;entryDy=0;" edge="1" parent="1" target="Ww5S3KVbp-khiv0_vOsi-45">
          <mxGeometry width="80" relative="1" as="geometry">
            <mxPoint x="580" y="560" as="sourcePoint" />
            <mxPoint x="1155" y="550" as="targetPoint" />
          </mxGeometry>
        </mxCell>
        <mxCell id="Ww5S3KVbp-khiv0_vOsi-56" value="" style="html=1;verticalAlign=bottom;endArrow=none;rounded=0;strokeColor=default;edgeStyle=orthogonalEdgeStyle;startFill=0;exitX=0.5;exitY=0;exitDx=0;exitDy=0;entryX=0.5;entryY=1;entryDx=0;entryDy=0;" edge="1" parent="1" source="Ww5S3KVbp-khiv0_vOsi-46" target="Ww5S3KVbp-khiv0_vOsi-13">
          <mxGeometry width="80" relative="1" as="geometry">
            <mxPoint x="1150" y="470" as="sourcePoint" />
            <mxPoint x="1170" y="440" as="targetPoint" />
          </mxGeometry>
        </mxCell>
        <mxCell id="Ww5S3KVbp-khiv0_vOsi-57" value="삭제" style="ellipse;whiteSpace=wrap;html=1;" vertex="1" parent="1">
          <mxGeometry x="270" y="670" width="50" height="50" as="geometry" />
        </mxCell>
        <mxCell id="Ww5S3KVbp-khiv0_vOsi-58" value="" style="html=1;verticalAlign=bottom;endArrow=none;rounded=0;strokeColor=default;edgeStyle=orthogonalEdgeStyle;startFill=0;entryX=0.5;entryY=0;entryDx=0;entryDy=0;exitX=0.5;exitY=1;exitDx=0;exitDy=0;" edge="1" parent="1" source="Ww5S3KVbp-khiv0_vOsi-15" target="Ww5S3KVbp-khiv0_vOsi-57">
          <mxGeometry width="80" relative="1" as="geometry">
            <mxPoint x="430" y="580" as="sourcePoint" />
            <mxPoint x="455" y="620" as="targetPoint" />
          </mxGeometry>
        </mxCell>
        <mxCell id="Ww5S3KVbp-khiv0_vOsi-59" value="" style="html=1;verticalAlign=bottom;endArrow=none;rounded=0;strokeColor=default;edgeStyle=orthogonalEdgeStyle;startFill=0;exitX=0.5;exitY=1;exitDx=0;exitDy=0;" edge="1" parent="1" source="Ww5S3KVbp-khiv0_vOsi-15" target="Ww5S3KVbp-khiv0_vOsi-48">
          <mxGeometry width="80" relative="1" as="geometry">
            <mxPoint x="390" y="600" as="sourcePoint" />
            <mxPoint x="465" y="710" as="targetPoint" />
          </mxGeometry>
        </mxCell>
        <mxCell id="Ww5S3KVbp-khiv0_vOsi-60" value="" style="html=1;verticalAlign=bottom;endArrow=none;rounded=0;exitX=0.5;exitY=0;exitDx=0;exitDy=0;strokeColor=default;edgeStyle=orthogonalEdgeStyle;startFill=0;entryX=0.5;entryY=1;entryDx=0;entryDy=0;" edge="1" parent="1" source="Ww5S3KVbp-khiv0_vOsi-38" target="Ww5S3KVbp-khiv0_vOsi-14">
          <mxGeometry width="80" relative="1" as="geometry">
            <mxPoint x="680" y="770" as="sourcePoint" />
            <mxPoint x="680" y="670" as="targetPoint" />
          </mxGeometry>
        </mxCell>
        <mxCell id="Ww5S3KVbp-khiv0_vOsi-61" value="&amp;lt;&amp;lt;extend&amp;gt;&amp;gt;" style="endArrow=open;endSize=12;dashed=1;html=1;rounded=0;exitX=0.5;exitY=0;exitDx=0;exitDy=0;entryX=0.5;entryY=1;entryDx=0;entryDy=0;" edge="1" parent="1" source="Ww5S3KVbp-khiv0_vOsi-62" target="Ww5S3KVbp-khiv0_vOsi-45">
          <mxGeometry width="160" relative="1" as="geometry">
            <mxPoint x="650" y="640" as="sourcePoint" />
            <mxPoint x="810" y="640" as="targetPoint" />
          </mxGeometry>
        </mxCell>
        <mxCell id="Ww5S3KVbp-khiv0_vOsi-62" value="월별" style="ellipse;whiteSpace=wrap;html=1;" vertex="1" parent="1">
          <mxGeometry x="505" y="760" width="50" height="50" as="geometry" />
        </mxCell>
        <mxCell id="Ww5S3KVbp-khiv0_vOsi-63" value="영웅별" style="ellipse;whiteSpace=wrap;html=1;" vertex="1" parent="1">
          <mxGeometry x="555" y="760" width="50" height="50" as="geometry" />
        </mxCell>
        <mxCell id="Ww5S3KVbp-khiv0_vOsi-64" value="&amp;lt;&amp;lt;extend&amp;gt;&amp;gt;" style="endArrow=open;endSize=12;dashed=1;html=1;rounded=0;exitX=0.5;exitY=0;exitDx=0;exitDy=0;entryX=0.5;entryY=1;entryDx=0;entryDy=0;" edge="1" parent="1" source="Ww5S3KVbp-khiv0_vOsi-63" target="Ww5S3KVbp-khiv0_vOsi-45">
          <mxGeometry width="160" relative="1" as="geometry">
            <mxPoint x="690" y="770" as="sourcePoint" />
            <mxPoint x="725" y="730" as="targetPoint" />
          </mxGeometry>
        </mxCell>
        <mxCell id="Ww5S3KVbp-khiv0_vOsi-67" value="&lt;font style=&quot;font-size: 11px;&quot;&gt;버프/너프별&lt;/font&gt;" style="ellipse;whiteSpace=wrap;html=1;" vertex="1" parent="1">
          <mxGeometry x="605" y="760" width="50" height="50" as="geometry" />
        </mxCell>
        <mxCell id="Ww5S3KVbp-khiv0_vOsi-68" value="&amp;lt;&amp;lt;extend&amp;gt;&amp;gt;" style="endArrow=open;endSize=12;dashed=1;html=1;rounded=0;exitX=0.5;exitY=0;exitDx=0;exitDy=0;entryX=0.5;entryY=1;entryDx=0;entryDy=0;" edge="1" parent="1" source="Ww5S3KVbp-khiv0_vOsi-67" target="Ww5S3KVbp-khiv0_vOsi-45">
          <mxGeometry width="160" relative="1" as="geometry">
            <mxPoint x="790" y="770" as="sourcePoint" />
            <mxPoint x="840" y="730" as="targetPoint" />
          </mxGeometry>
        </mxCell>
      </root>
    </mxGraphModel>
  </diagram>
</mxfile>
